<svg width="18" height="20" viewBox="0 0 18 20" fill="none" xmlns="http://www.w3.org/2000/svg">
<path d="M12.328 5.75689L6.67204 11.4139C6.57653 11.5061 6.50035 11.6165 6.44794 11.7385C6.39553 11.8605 6.36795 11.9917 6.36679 12.1245C6.36564 12.2573 6.39094 12.3889 6.44122 12.5118C6.4915 12.6347 6.56576 12.7464 6.65965 12.8403C6.75354 12.9342 6.86519 13.0084 6.98809 13.0587C7.11098 13.109 7.24267 13.1343 7.37544 13.1331C7.50822 13.132 7.63944 13.1044 7.76145 13.052C7.88345 12.9996 7.9938 12.9234 8.08604 12.8279L13.743 7.17189C14.3057 6.60923 14.6218 5.8461 14.6218 5.05039C14.6218 4.25467 14.3057 3.49154 13.743 2.92889C13.1804 2.36623 12.4173 2.05013 11.6215 2.05013C10.8258 2.05013 10.0627 2.36623 9.50004 2.92889L3.84304 8.58589C3.36912 9.04802 2.99167 9.59965 2.7326 10.2088C2.47353 10.8179 2.33799 11.4724 2.33384 12.1344C2.32969 12.7963 2.45702 13.4525 2.70844 14.0648C2.95986 14.6771 3.33036 15.2334 3.79846 15.7015C4.26655 16.1695 4.82293 16.5399 5.4353 16.7913C6.04767 17.0426 6.70385 17.1698 7.36578 17.1656C8.02771 17.1614 8.6822 17.0257 9.2913 16.7666C9.9004 16.5074 10.452 16.1299 10.914 15.6559L16.571 9.99989L17.985 11.4139L12.328 17.0709C11.678 17.7209 10.9063 18.2366 10.057 18.5884C9.20764 18.9402 8.29734 19.1212 7.37804 19.1212C6.45874 19.1212 5.54844 18.9402 4.69912 18.5884C3.8498 18.2366 3.07809 17.7209 2.42804 17.0709C1.778 16.4208 1.26236 15.6491 0.910556 14.7998C0.558755 13.9505 0.377686 13.0402 0.377686 12.1209C0.377686 11.2016 0.558755 10.2913 0.910556 9.44197C1.26236 8.59264 1.778 7.82093 2.42804 7.17089L8.08604 1.51489C9.02905 0.604097 10.2921 0.100125 11.603 0.111517C12.914 0.122909 14.1681 0.648754 15.0951 1.57579C16.0222 2.50284 16.548 3.7569 16.5594 5.06788C16.5708 6.37887 16.0668 7.64188 15.156 8.58489L9.50004 14.2439C9.22138 14.5225 8.89057 14.7435 8.5265 14.8942C8.16243 15.045 7.77223 15.1225 7.37819 15.1225C6.98414 15.1224 6.59397 15.0448 6.22993 14.894C5.8659 14.7431 5.53514 14.5221 5.25654 14.2434C4.97794 13.9647 4.75696 13.6339 4.60621 13.2698C4.45546 12.9058 4.37789 12.5156 4.37794 12.1215C4.37798 11.7275 4.45564 11.3373 4.60648 10.9733C4.75732 10.6092 4.97838 10.2785 5.25704 9.99989L10.914 4.34289L12.328 5.75689Z" fill="#FAFBFC"/>
</svg>
