<svg width="24" height="24" viewBox="0 0 24 24" fill="none" xmlns="http://www.w3.org/2000/svg">
<path d="M15.5002 11.9999C15.5009 11.8683 15.4757 11.7379 15.426 11.616C15.3762 11.4942 15.3029 11.3834 15.2102 11.2899L11.2102 7.28994C11.1169 7.1967 11.0063 7.12274 10.8844 7.07228C10.7626 7.02182 10.632 6.99585 10.5002 6.99585C10.3683 6.99585 10.2378 7.02182 10.1159 7.07228C9.99411 7.12274 9.88342 7.1967 9.79018 7.28994C9.69695 7.38318 9.62299 7.49387 9.57253 7.61569C9.52206 7.73751 9.49609 7.86808 9.49609 7.99994C9.49609 8.1318 9.52206 8.26237 9.57253 8.38419C9.62299 8.50601 9.69695 8.6167 9.79019 8.70994L13.1002 11.9999L9.92019 15.2999C9.8179 15.3919 9.73569 15.504 9.6787 15.6293C9.62171 15.7545 9.59118 15.8901 9.589 16.0276C9.58682 16.1652 9.61304 16.3017 9.66604 16.4287C9.71903 16.5556 9.79764 16.6703 9.89697 16.7655C9.99629 16.8607 10.1142 16.9343 10.2433 16.9819C10.3724 17.0294 10.5099 17.0498 10.6472 17.0418C10.7846 17.0338 10.9188 16.9975 11.0414 16.9352C11.1641 16.873 11.2726 16.7861 11.3602 16.6799L15.2202 12.6799C15.3965 12.4971 15.4966 12.2539 15.5002 11.9999Z" fill="#97A0A8"/>
</svg>
