<svg width="16" height="17" viewBox="0 0 16 17" fill="none" xmlns="http://www.w3.org/2000/svg">
<path d="M3.49977 13.5H12.4998C12.6898 13.5001 12.8727 13.5722 13.0116 13.702C13.1504 13.8317 13.2348 14.0093 13.2478 14.1989C13.2607 14.3885 13.2013 14.5759 13.0813 14.7233C12.9614 14.8707 12.79 14.9671 12.6018 14.993L12.4998 15H3.49977C3.30975 14.9999 3.12683 14.9278 2.98798 14.798C2.84913 14.6683 2.7647 14.4907 2.75175 14.3011C2.73879 14.1115 2.79829 13.9241 2.9182 13.7767C3.03812 13.6293 3.20952 13.5329 3.39777 13.507L3.49977 13.5H12.4998H3.49977ZM7.89777 1.507L7.99977 1.5C8.18101 1.50001 8.35611 1.56564 8.4927 1.68477C8.62929 1.80389 8.71812 1.96845 8.74277 2.148L8.74977 2.25V9.938L11.0048 7.684C11.1319 7.55687 11.3006 7.47966 11.4799 7.46645C11.6592 7.45323 11.8373 7.50489 11.9818 7.612L12.0658 7.684C12.1929 7.81117 12.2701 7.97979 12.2833 8.15912C12.2965 8.33845 12.2449 8.51657 12.1378 8.661L12.0658 8.745L8.52977 12.28C8.40278 12.407 8.23443 12.4842 8.05532 12.4976C7.87621 12.511 7.69824 12.4597 7.55377 12.353L7.46977 12.28L3.93377 8.745C3.79958 8.61118 3.72102 8.43151 3.7139 8.24213C3.70678 8.05274 3.77162 7.86768 3.89538 7.72416C4.01915 7.58063 4.19266 7.48928 4.38103 7.46848C4.5694 7.44767 4.75867 7.49895 4.91077 7.612L4.99477 7.684L7.24977 9.94V2.25C7.24978 2.06876 7.31541 1.89366 7.43454 1.75707C7.55366 1.62048 7.71822 1.53165 7.89777 1.507L7.99977 1.5L7.89777 1.507Z" fill=""/>
</svg>
