<svg width="24" height="24" viewBox="0 0 24 24" fill="none" xmlns="http://www.w3.org/2000/svg">
<path fill-rule="evenodd" clip-rule="evenodd" d="M5.625 3C5.92337 3 6.20952 3.11853 6.4205 3.3295C6.63147 3.54048 6.75 3.82663 6.75 4.125V10.5H17.25V4.125C17.25 3.82663 17.3685 3.54048 17.5795 3.3295C17.7905 3.11853 18.0766 3 18.375 3C18.6734 3 18.9595 3.11853 19.1705 3.3295C19.3815 3.54048 19.5 3.82663 19.5 4.125V19.875C19.5 20.1734 19.3815 20.4595 19.1705 20.6705C18.9595 20.8815 18.6734 21 18.375 21C18.0766 21 17.7905 20.8815 17.5795 20.6705C17.3685 20.4595 17.25 20.1734 17.25 19.875V12.75H6.75V19.875C6.75 20.1734 6.63147 20.4595 6.4205 20.6705C6.20952 20.8815 5.92337 21 5.625 21C5.32663 21 5.04048 20.8815 4.8295 20.6705C4.61853 20.4595 4.5 20.1734 4.5 19.875V4.125C4.5 3.82663 4.61853 3.54048 4.8295 3.3295C5.04048 3.11853 5.32663 3 5.625 3Z" fill="black"/>
</svg>
