<svg width="20" height="20" viewBox="0 0 20 20" fill="none" xmlns="http://www.w3.org/2000/svg">
<path d="M9.51401 0.126041C9.66266 0.043381 9.82993 0 10 0C10.1701 0 10.3374 0.043381 10.486 0.126041L19.486 5.12604C19.6418 5.21267 19.7717 5.33938 19.862 5.49305C19.9524 5.64672 20.0001 5.82176 20.0001 6.00004C20.0001 6.17832 19.9524 6.35336 19.862 6.50703C19.7717 6.6607 19.6418 6.78741 19.486 6.87404L10.486 11.874C10.3374 11.9567 10.1701 12.0001 10 12.0001C9.82993 12.0001 9.66266 11.9567 9.51401 11.874L0.514013 6.87404C0.358196 6.78741 0.228372 6.6607 0.137986 6.50703C0.0475999 6.35336 -6.10352e-05 6.17832 -6.10352e-05 6.00004C-6.10352e-05 5.82176 0.0475999 5.64672 0.137986 5.49305C0.228372 5.33938 0.358196 5.21267 0.514013 5.12604L9.51401 0.126041ZM3.06001 6.00004L10 9.85604L16.94 6.00004L10 2.14404L3.06001 6.00004Z" fill="#97A0A8"/>
<path d="M0.125988 9.51405C0.189807 9.39927 0.275609 9.29819 0.378496 9.21657C0.481382 9.13495 0.599337 9.0744 0.725626 9.03837C0.851915 9.00234 0.984064 8.99154 1.11453 9.00658C1.24499 9.02163 1.37121 9.06222 1.48599 9.12605L9.99999 13.856L18.514 9.12605C18.7458 8.99715 19.0193 8.96562 19.2743 9.03838C19.5294 9.11115 19.7451 9.28225 19.874 9.51405C20.0029 9.74585 20.0344 10.0194 19.9617 10.2744C19.8889 10.5295 19.7178 10.7452 19.486 10.874L10.486 15.874C10.3373 15.9567 10.1701 16.0001 9.99999 16.0001C9.8299 16.0001 9.66263 15.9567 9.51399 15.874L0.513988 10.874C0.399209 10.8102 0.298125 10.7244 0.216507 10.6215C0.13489 10.5187 0.0743379 10.4007 0.0383084 10.2744C0.00227893 10.1481 -0.00852215 10.016 0.00652198 9.88551C0.0215661 9.75505 0.0621606 9.62882 0.125988 9.51405Z" fill="#97A0A8"/>
<path d="M0.125988 13.514C0.189807 13.3993 0.275609 13.2982 0.378496 13.2166C0.481382 13.135 0.599337 13.0744 0.725626 13.0384C0.851915 13.0023 0.984064 12.9915 1.11453 13.0066C1.24499 13.0216 1.37121 13.0622 1.48599 13.126L9.99999 17.8561L18.514 13.126C18.6288 13.0622 18.755 13.0216 18.8854 13.0066C19.0159 12.9916 19.1481 13.0024 19.2743 13.0384C19.4006 13.0744 19.5186 13.135 19.6215 13.2166C19.7244 13.2982 19.8102 13.3993 19.874 13.514C19.9378 13.6288 19.9784 13.755 19.9934 13.8855C20.0085 14.016 19.9977 14.1481 19.9617 14.2744C19.9256 14.4007 19.8651 14.5186 19.7835 14.6215C19.7018 14.7244 19.6008 14.8102 19.486 14.874L10.486 19.874C10.3373 19.9567 10.1701 20.0001 9.99999 20.0001C9.8299 20.0001 9.66263 19.9567 9.51399 19.874L0.513988 14.874C0.399209 14.8102 0.298125 14.7244 0.216507 14.6215C0.13489 14.5187 0.0743379 14.4007 0.0383084 14.2744C0.00227893 14.1481 -0.00852215 14.016 0.00652198 13.8855C0.0215661 13.755 0.0621606 13.6288 0.125988 13.514Z" fill="#97A0A8"/>
</svg>
