<svg width="24" height="24" viewBox="0 0 24 24" fill="none" xmlns="http://www.w3.org/2000/svg">
<path d="M13.2899 9.29018L9.28994 13.2902C9.19621 13.3831 9.12182 13.4937 9.07105 13.6156C9.02028 13.7375 8.99414 13.8682 8.99414 14.0002C8.99414 14.1322 9.02028 14.2629 9.07105 14.3848C9.12182 14.5066 9.19621 14.6172 9.28994 14.7102C9.3829 14.8039 9.4935 14.8783 9.61536 14.9291C9.73722 14.9798 9.86793 15.006 9.99994 15.006C10.132 15.006 10.2627 14.9798 10.3845 14.9291C10.5064 14.8783 10.617 14.8039 10.7099 14.7102L14.7099 10.7102C14.8982 10.5219 15.004 10.2665 15.004 10.0002C15.004 9.73388 14.8982 9.47849 14.7099 9.29018C14.5216 9.10188 14.2662 8.99609 13.9999 8.99609C13.7336 8.99609 13.4782 9.10188 13.2899 9.29018Z" fill="black"/>
<path d="M12.28 17.3995L11 18.6695C10.2815 19.41 9.31547 19.86 8.28632 19.9338C7.25717 20.0076 6.23687 19.6999 5.42003 19.0695C4.9883 18.7138 4.636 18.2714 4.38587 17.771C4.13574 17.2707 3.99336 16.7234 3.96792 16.1645C3.94247 15.6057 4.03453 15.0477 4.23815 14.5267C4.44177 14.0056 4.75242 13.5331 5.15003 13.1395L6.57003 11.7095C6.66376 11.6166 6.73815 11.506 6.78892 11.3841C6.83969 11.2623 6.86583 11.1316 6.86583 10.9995C6.86583 10.8675 6.83969 10.7368 6.78892 10.615C6.73815 10.4931 6.66376 10.3825 6.57003 10.2895C6.47707 10.1958 6.36647 10.1214 6.24461 10.0707C6.12275 10.0199 5.99204 9.99375 5.86003 9.99375C5.72802 9.99375 5.59731 10.0199 5.47545 10.0707C5.3536 10.1214 5.24299 10.1958 5.15003 10.2895L3.88003 11.5695C2.81019 12.6056 2.15262 13.9946 2.0294 15.4787C1.90618 16.9629 2.32568 18.4413 3.21003 19.6395C3.73491 20.3205 4.39867 20.8819 5.15722 21.2866C5.91577 21.6913 6.75174 21.9299 7.60961 21.9867C8.46748 22.0434 9.3276 21.917 10.1328 21.6157C10.9381 21.3145 11.67 20.8454 12.28 20.2395L13.7 18.8195C13.8883 18.6312 13.9941 18.3759 13.9941 18.1095C13.9941 17.8432 13.8883 17.5879 13.7 17.3995C13.5117 17.2112 13.2563 17.1055 12.99 17.1055C12.7237 17.1055 12.4683 17.2112 12.28 17.3995ZM19.66 3.21955C18.4535 2.32601 16.963 1.90224 15.4669 2.02737C13.9707 2.15251 12.5713 2.818 11.53 3.89955L10.45 4.99955C10.3266 5.08929 10.2234 5.20395 10.147 5.3361C10.0707 5.46826 10.023 5.61497 10.007 5.76674C9.99096 5.91851 10.007 6.07195 10.054 6.21714C10.1011 6.36232 10.1781 6.49601 10.28 6.60955C10.373 6.70328 10.4836 6.77767 10.6055 6.82844C10.7273 6.87921 10.858 6.90535 10.99 6.90535C11.122 6.90535 11.2527 6.87921 11.3746 6.82844C11.4965 6.77767 11.6071 6.70328 11.7 6.60955L13 5.29955C13.7146 4.55587 14.6795 4.10338 15.7082 4.02951C16.7369 3.95563 17.7565 4.26561 18.57 4.89955C19.005 5.25535 19.3601 5.6988 19.6122 6.20101C19.8643 6.70322 20.0078 7.25292 20.0332 7.81428C20.0587 8.37564 19.9656 8.93607 19.76 9.45905C19.5544 9.98202 19.241 10.4558 18.84 10.8495L17.42 12.2795C17.3263 12.3725 17.2519 12.4831 17.2011 12.605C17.1504 12.7268 17.1242 12.8575 17.1242 12.9895C17.1242 13.1216 17.1504 13.2523 17.2011 13.3741C17.2519 13.496 17.3263 13.6066 17.42 13.6995C17.513 13.7933 17.6236 13.8677 17.7455 13.9184C17.8673 13.9692 17.998 13.9953 18.13 13.9953C18.262 13.9953 18.3927 13.9692 18.5146 13.9184C18.6365 13.8677 18.7471 13.7933 18.84 13.6995L20.26 12.2795C20.8642 11.6697 21.3319 10.9384 21.6321 10.1341C21.9323 9.32982 22.0582 8.47095 22.0015 7.61435C21.9448 6.75776 21.7067 5.92299 21.303 5.16534C20.8994 4.40769 20.3393 3.74445 19.66 3.21955Z" fill="black"/>
</svg>
