<svg width="24" height="23" viewBox="0 0 24 23" fill="none" xmlns="http://www.w3.org/2000/svg">
<path d="M12 13.4166C13.1046 13.4166 14 12.5585 14 11.4999C14 10.4414 13.1046 9.58325 12 9.58325C10.8954 9.58325 10 10.4414 10 11.4999C10 12.5585 10.8954 13.4166 12 13.4166Z" fill="#97A0A8"/>
<path d="M19 13.4166C20.1046 13.4166 21 12.5585 21 11.4999C21 10.4414 20.1046 9.58325 19 9.58325C17.8954 9.58325 17 10.4414 17 11.4999C17 12.5585 17.8954 13.4166 19 13.4166Z" fill="#97A0A8"/>
<path d="M5 13.4166C6.10457 13.4166 7 12.5585 7 11.4999C7 10.4414 6.10457 9.58325 5 9.58325C3.89543 9.58325 3 10.4414 3 11.4999C3 12.5585 3.89543 13.4166 5 13.4166Z" fill="#97A0A8"/>
</svg>
