<svg width="17" height="22" viewBox="0 0 17 22" fill="none" xmlns="http://www.w3.org/2000/svg">
<path d="M8.49984 21.8333C9.64567 21.8333 10.5832 20.8583 10.5832 19.6666H6.4165C6.4165 20.8583 7.354 21.8333 8.49984 21.8333ZM14.7498 15.3333V9.91659C14.7498 6.59075 13.0519 3.80659 10.0623 3.06992V2.33325C10.0623 1.43409 9.36442 0.708252 8.49984 0.708252C7.63525 0.708252 6.93734 1.43409 6.93734 2.33325V3.06992C3.95817 3.80659 2.24984 6.57992 2.24984 9.91659V15.3333L0.166504 17.4999V18.5833H16.8332V17.4999L14.7498 15.3333ZM12.6665 16.4166H4.33317V9.91659C4.33317 7.22992 5.90609 5.04159 8.49984 5.04159C11.0936 5.04159 12.6665 7.22992 12.6665 9.91659V16.4166Z" fill="#97A0A8"/>
</svg>
