<svg width="18" height="24" viewBox="0 0 18 24" fill="none" xmlns="http://www.w3.org/2000/svg">
<path d="M18 21V6.75L11.25 0H3C2.20435 0 1.44129 0.316071 0.87868 0.87868C0.31607 1.44129 0 2.20435 0 3V21C0 21.7956 0.31607 22.5587 0.87868 23.1213C1.44129 23.6839 2.20435 24 3 24H15C15.7956 24 16.5587 23.6839 17.1213 23.1213C17.6839 22.5587 18 21.7956 18 21ZM11.25 4.5C11.25 5.09674 11.4871 5.66903 11.909 6.09099C12.331 6.51295 12.9033 6.75 13.5 6.75H16.5V21C16.5 21.3978 16.342 21.7794 16.0607 22.0607C15.7794 22.342 15.3978 22.5 15 22.5H3C2.60218 22.5 2.22064 22.342 1.93934 22.0607C1.65804 21.7794 1.5 21.3978 1.5 21V3C1.5 2.60218 1.65804 2.22064 1.93934 1.93934C2.22064 1.65804 2.60218 1.5 3 1.5H11.25V4.5Z" fill="#EE4040"/>
<path d="M3.90426 21.1295C3.6119 21.0126 3.37635 20.7867 3.24726 20.4995C2.95476 19.9175 3.05226 19.3355 3.36726 18.8465C3.66426 18.386 4.15626 17.9945 4.71276 17.666C5.41767 17.2662 6.16279 16.9419 6.93576 16.6985C7.53604 15.6194 8.06809 14.5037 8.52876 13.358C8.25333 12.7322 8.03738 12.0818 7.88376 11.4155C7.75476 10.8155 7.70526 10.2215 7.81476 9.71151C7.92726 9.18051 8.22576 8.70351 8.78976 8.47701C9.07776 8.36151 9.38976 8.29701 9.69276 8.36151C9.84517 8.39395 9.98846 8.45992 10.1122 8.55462C10.236 8.64932 10.3371 8.77037 10.4083 8.90901C10.5403 9.15501 10.5883 9.44301 10.5988 9.71601C10.6093 9.99801 10.5808 10.31 10.5283 10.637C10.4023 11.402 10.1233 12.338 9.74826 13.328C10.1621 14.213 10.654 15.0594 11.2183 15.857C11.8859 15.8043 12.5574 15.8294 13.2193 15.932C13.7653 16.031 14.3203 16.2245 14.6593 16.6295C14.8393 16.8455 14.9488 17.1095 14.9593 17.4065C14.9698 17.6945 14.8888 17.9795 14.7523 18.251C14.634 18.5026 14.4507 18.718 14.2213 18.875C13.9945 19.0229 13.7267 19.0954 13.4563 19.082C12.9598 19.061 12.4753 18.788 12.0568 18.4565C11.5479 18.0358 11.0893 17.5576 10.6903 17.0315C9.67589 17.1466 8.67356 17.3504 7.69476 17.6405C7.24653 18.4354 6.73487 19.1929 6.16476 19.9055C5.72676 20.4305 5.25126 20.8895 4.77426 21.086C4.50019 21.21 4.18933 21.2255 3.90426 21.1295V21.1295ZM5.97276 18.278C5.72376 18.392 5.49276 18.512 5.28426 18.635C4.79226 18.926 4.47276 19.2095 4.31376 19.4555C4.17276 19.673 4.16976 19.8305 4.25376 19.997C4.26876 20.03 4.28376 20.051 4.29276 20.063C4.31066 20.0582 4.3282 20.0522 4.34526 20.045C4.55076 19.961 4.87776 19.6925 5.29776 19.187C5.53663 18.8946 5.76187 18.5912 5.97276 18.278V18.278ZM8.43276 16.283C8.93365 16.1661 9.43906 16.0695 9.94776 15.9935C9.67464 15.5755 9.4194 15.1462 9.18276 14.7065C8.94749 15.2384 8.69739 15.7636 8.43276 16.2815V16.283ZM12.1018 16.958C12.3268 17.2025 12.5458 17.408 12.7543 17.573C13.1143 17.858 13.3648 17.9525 13.5013 17.957C13.5378 17.9618 13.5749 17.9538 13.6063 17.9345C13.6687 17.8852 13.7172 17.8206 13.7473 17.747C13.8006 17.6556 13.831 17.5527 13.8358 17.447C13.8349 17.4118 13.821 17.3781 13.7968 17.3525C13.7188 17.2595 13.4968 17.1245 13.0198 17.039C12.7163 16.9883 12.4094 16.9617 12.1018 16.9595V16.958ZM9.11676 11.699C9.243 11.2918 9.3432 10.877 9.41676 10.457C9.46326 10.175 9.48126 9.94251 9.47376 9.75951C9.47417 9.65854 9.45796 9.5582 9.42576 9.46251C9.35072 9.4718 9.27745 9.49201 9.20826 9.52251C9.07776 9.57501 8.97126 9.68151 8.91426 9.94701C8.85426 10.235 8.86926 10.6505 8.98326 11.18C9.01926 11.3465 9.06426 11.5205 9.11826 11.699H9.11676Z" fill="#EE4040"/>
</svg>
