<svg width="22" height="24" viewBox="0 0 22 24" fill="none" xmlns="http://www.w3.org/2000/svg">
<path d="M2.99961 10.4V9.6H2.19961V10.4H2.99961ZM15.7996 16.8H14.9996V17.6H15.7996V16.8ZM18.9996 16.8V17.6H19.7996V16.8H18.9996ZM20.5996 5.6H21.3996V5.2688L21.166 5.0336L20.5996 5.6ZM15.7996 0.8L16.366 0.2336L16.1308 0H15.7996V0.8ZM9.39961 10.4L10.1148 10.0416L8.59961 10.4H9.39961ZM8.59961 16.8V17.6H10.1996V16.8H8.59961ZM12.5996 16.8L11.8844 17.1584C11.9651 17.3195 12.0978 17.4485 12.2611 17.5248C12.4243 17.601 12.6084 17.6199 12.7838 17.5785C12.9591 17.537 13.1152 17.4376 13.227 17.2963C13.3388 17.155 13.3996 16.9801 13.3996 16.8H12.5996ZM13.3996 10.4V9.6H11.7996V10.4H13.3996ZM2.99961 11.2H4.59961V9.6H2.99961V11.2ZM3.79961 17.6V13.6H2.19961V17.6H3.79961ZM3.79961 13.6V10.4H2.19961V13.6H3.79961ZM4.59961 12.8H2.99961V14.4H4.59961V12.8ZM5.39961 12C5.39961 12.2122 5.31532 12.4157 5.1653 12.5657C5.01527 12.7157 4.81178 12.8 4.59961 12.8V14.4C5.23613 14.4 5.84658 14.1471 6.29667 13.6971C6.74675 13.247 6.99961 12.6365 6.99961 12H5.39961ZM4.59961 11.2C4.81178 11.2 5.01527 11.2843 5.1653 11.4343C5.31532 11.5843 5.39961 11.7878 5.39961 12H6.99961C6.99961 11.3635 6.74675 10.753 6.29667 10.3029C5.84658 9.85286 5.23613 9.6 4.59961 9.6V11.2ZM14.9996 9.6V16.8H16.5996V9.6H14.9996ZM15.7996 17.6H18.9996V16H15.7996V17.6ZM19.7996 16.8V13.6H18.1996V16.8H19.7996ZM15.7996 11.2H19.7996V9.6H15.7996V11.2ZM2.19961 8V2.4H0.599609V8H2.19961ZM19.7996 5.6V8H21.3996V5.6H19.7996ZM2.99961 1.6H15.7996V0H2.99961V1.6ZM15.2332 1.3664L20.0332 6.1664L21.166 5.0336L16.366 0.2336L15.2332 1.3664ZM2.19961 2.4C2.19961 2.18783 2.2839 1.98434 2.43392 1.83431C2.58395 1.68429 2.78744 1.6 2.99961 1.6V0C2.36309 0 1.75264 0.252856 1.30255 0.702944C0.852466 1.15303 0.599609 1.76348 0.599609 2.4H2.19961ZM0.599609 19.2V21.6H2.19961V19.2H0.599609ZM2.99961 24H18.9996V22.4H2.99961V24ZM21.3996 21.6V19.2H19.7996V21.6H21.3996ZM18.9996 24C19.6361 24 20.2466 23.7471 20.6967 23.2971C21.1468 22.847 21.3996 22.2365 21.3996 21.6H19.7996C19.7996 21.8122 19.7153 22.0157 19.5653 22.1657C19.4153 22.3157 19.2118 22.4 18.9996 22.4V24ZM0.599609 21.6C0.599609 22.2365 0.852466 22.847 1.30255 23.2971C1.75264 23.7471 2.36309 24 2.99961 24V22.4C2.78744 22.4 2.58395 22.3157 2.43392 22.1657C2.2839 22.0157 2.19961 21.8122 2.19961 21.6H0.599609ZM8.59961 10.4V16.8H10.1996V10.4H8.59961ZM8.68441 10.7584L11.8844 17.1584L13.3148 16.4416L10.1148 10.0416L8.68441 10.7584ZM11.7996 10.4V16.8H13.3996V10.4H11.7996Z" fill="black"/>
</svg>
