<svg width="32" height="32" viewBox="0 0 32 32" fill="none" xmlns="http://www.w3.org/2000/svg">
<path d="M18.536 2.32031V5.18331C21.936 5.20231 25.893 5.14831 29.29 5.19931C29.932 5.19931 29.96 5.76731 29.968 6.26331C30.022 12.2053 29.955 18.3183 30 24.2633C29.988 24.4973 29.994 25.3633 29.987 25.6093C29.965 26.4323 29.553 26.4683 28.73 26.4933C28.598 26.4933 28.21 26.4993 28.082 26.5053C24.901 26.4893 21.72 26.4963 18.536 26.4963V29.6783L2 27.1333V4.87231L18.536 2.32131" fill="#D33922"/>
<path d="M18.5362 6.13672H29.0362V25.5367H18.5362V22.9987H26.1702V21.7237H18.5362V20.1337H26.1702V18.8617H18.5392C18.5392 18.2377 18.5392 17.6147 18.5332 16.9917C19.1578 17.217 19.8247 17.3003 20.4855 17.2354C21.1463 17.1706 21.7844 16.9592 22.3532 16.6167C22.933 16.2357 23.4133 15.7216 23.7541 15.1173C24.0949 14.513 24.2862 13.836 24.3122 13.1427C22.9122 13.1327 21.5192 13.1367 20.1262 13.1367C20.1262 11.7527 20.1422 10.3697 20.0972 8.98872C19.5752 9.08872 19.0542 9.19872 18.5352 9.30972V6.13772" fill="white"/>
<path d="M20.7657 8.32422C21.8504 8.39219 22.8733 8.8525 23.6436 9.61926C24.4138 10.386 24.8788 11.4068 24.9517 12.4912C23.5517 12.5072 22.1587 12.5012 20.7627 12.5012V8.32422" fill="#D33922"/>
<path d="M7.10006 10.725C8.82706 10.808 10.9201 10.041 12.3521 11.336C13.7231 13 13.3601 16.06 11.3281 17.055C10.5892 17.3476 9.78827 17.448 9.00006 17.347C9.00006 18.591 8.99406 19.835 9.00006 21.078C8.37006 21.024 7.73706 20.97 7.10706 20.919C7.07806 17.519 7.07206 14.119 7.10706 10.719" fill="white"/>
<path d="M8.99297 12.4462C9.61997 12.4172 10.393 12.3032 10.819 12.8912C10.9893 13.2114 11.0818 13.5672 11.0889 13.9298C11.096 14.2924 11.0176 14.6515 10.86 14.9782C10.497 15.6332 9.67697 15.5702 9.04397 15.6462C8.97697 14.5802 8.98397 13.5152 8.99297 12.4462Z" fill="#D33922"/>
</svg>
