<svg width="24" height="24" viewBox="0 0 24 24" fill="none" xmlns="http://www.w3.org/2000/svg">
<path d="M21.3801 5.75992C21.346 5.63223 21.2868 5.51257 21.2062 5.40786C21.1255 5.30316 21.0249 5.21549 20.9101 5.14992L15.7101 2.14992C15.5966 2.08339 15.471 2.03992 15.3406 2.022C15.2103 2.00409 15.0776 2.01209 14.9504 2.04553C14.8231 2.07897 14.7037 2.13721 14.5989 2.2169C14.4942 2.29659 14.4063 2.39616 14.3401 2.50992L12.0001 6.56992L9.66009 2.50992C9.59393 2.39616 9.50597 2.29659 9.40124 2.2169C9.29652 2.13721 9.1771 2.07897 9.04982 2.04553C8.92255 2.01209 8.78993 2.00409 8.65955 2.022C8.52918 2.03992 8.40363 2.08339 8.29009 2.14992L3.09009 5.14992C2.97533 5.21549 2.8747 5.30316 2.79402 5.40786C2.71335 5.51257 2.65423 5.63223 2.62009 5.75992C2.55391 6.01337 2.58982 6.28266 2.72009 6.50992L6.72009 13.3399C6.27384 14.1575 6.02713 15.0689 6.00009 15.9999C5.99771 16.9082 6.20158 17.8052 6.59631 18.6232C6.99105 19.4412 7.56635 20.159 8.27885 20.7223C8.99135 21.2856 9.82244 21.6798 10.7095 21.8752C11.5965 22.0706 12.5163 22.062 13.3995 21.8502C14.2828 21.6383 15.1064 21.2287 15.8083 20.6522C16.5102 20.0757 17.072 19.3474 17.4514 18.5222C17.8309 17.6969 18.018 16.7963 17.9987 15.8882C17.9794 14.9801 17.7542 14.0883 17.3401 13.2799L21.2401 6.51992C21.3127 6.40886 21.3624 6.28447 21.3865 6.15399C21.4105 6.02351 21.4083 5.88955 21.3801 5.75992ZM5.00009 6.37992L8.46009 4.37992L11.6801 9.99992C10.3075 10.0847 9.00688 10.6431 8.00009 11.5799L5.00009 6.37992ZM12.0001 19.9999C10.9392 19.9999 9.92181 19.5785 9.17167 18.8283C8.42152 18.0782 8.00009 17.0608 8.00009 15.9999C8.00009 14.9391 8.42152 13.9216 9.17167 13.1715C9.92181 12.4213 10.9392 11.9999 12.0001 11.9999C13.061 11.9999 14.0784 12.4213 14.8285 13.1715C15.5787 13.9216 16.0001 14.9391 16.0001 15.9999C16.0001 17.0608 15.5787 18.0782 14.8285 18.8283C14.0784 19.5785 13.061 19.9999 12.0001 19.9999ZM16.0001 11.5499C15.4572 11.054 14.8263 10.664 14.1401 10.3999L13.1601 8.56992L15.5801 4.37992L19.0401 6.37992L16.0001 11.5499Z" fill="#97A0A8"/>
</svg>
