<svg width="20" height="20" viewBox="0 0 20 20" fill="none" xmlns="http://www.w3.org/2000/svg">
<path d="M17.5 3.6694H14.1797V2.78231C14.1797 2.0565 13.9388 1.44494 13.457 0.947628C12.9753 0.450316 12.3828 0.20166 11.6797 0.20166H8.32031C7.61719 0.20166 7.02474 0.450316 6.54297 0.947628C6.0612 1.44494 5.82031 2.0565 5.82031 2.78231V3.6694H2.5C1.79688 3.6694 1.20443 3.91134 0.722656 4.39521C0.240885 4.87908 0 5.49736 0 6.25005V9.67747C0 10.242 0.273438 10.5242 0.820312 10.5242V17.4194C0.820312 17.8764 0.989583 18.2796 1.32812 18.6291C1.66667 18.9785 2.05729 19.1533 2.5 19.1533H17.5C17.9427 19.1533 18.3333 18.9785 18.6719 18.6291C19.0104 18.2796 19.1797 17.8764 19.1797 17.4194V10.5242C19.7266 10.5242 20 10.242 20 9.67747V6.25005C20 5.49736 19.7591 4.87908 19.2773 4.39521C18.7956 3.91134 18.2031 3.6694 17.5 3.6694ZM7.5 2.78231C7.5 2.54037 7.57812 2.33876 7.73438 2.17747C7.89062 2.01618 8.08594 1.93553 8.32031 1.93553H11.6797C11.9141 1.93553 12.1094 2.01618 12.2656 2.17747C12.4219 2.33876 12.5 2.54037 12.5 2.78231V3.6694H7.5V2.78231ZM2.5 17.4194V10.5242H7.5V13.1049C7.5 13.5888 7.66276 13.9987 7.98828 14.3347C8.3138 14.6707 8.71094 14.8388 9.17969 14.8388H10.8203C11.2891 14.8388 11.6862 14.6707 12.0117 14.3347C12.3372 13.9987 12.5 13.5888 12.5 13.1049V10.5242H17.5V17.4194H2.5ZM9.17969 13.1049V10.5242H10.8203V13.1049H9.17969ZM18.3203 8.83069H1.67969V6.25005C1.67969 5.65865 1.95312 5.36295 2.5 5.36295H17.5C18.0469 5.36295 18.3203 5.65865 18.3203 6.25005V8.83069Z" fill="#97A0A8"/>
</svg>

