<svg width="25" height="26" viewBox="0 0 25 26" fill="none" xmlns="http://www.w3.org/2000/svg">
<path d="M13.4793 23.8334H11.5106C11.0465 23.8334 10.6013 23.6417 10.2731 23.3004C9.94495 22.959 9.76058 22.4961 9.76058 22.0134V20.8326C9.75494 20.763 9.7304 20.6965 9.68983 20.6409C9.64925 20.5853 9.59431 20.5428 9.53141 20.5184C9.46768 20.4759 9.39357 20.4534 9.31787 20.4534C9.24217 20.4534 9.16807 20.4759 9.10433 20.5184L8.3335 21.3851C8.1718 21.5544 7.9795 21.6888 7.76765 21.7805C7.5558 21.8722 7.32859 21.9195 7.09912 21.9195C6.86965 21.9195 6.64245 21.8722 6.4306 21.7805C6.21875 21.6888 6.02644 21.5544 5.86475 21.3851L4.43766 19.9334C4.27247 19.7656 4.14128 19.5651 4.05183 19.3436C3.96238 19.1222 3.91647 18.8844 3.91683 18.6442C3.9175 18.153 4.10469 17.6819 4.43766 17.3334L5.2085 16.5317C5.24571 16.4721 5.26551 16.4025 5.26551 16.3313C5.26551 16.2602 5.24571 16.1906 5.2085 16.1309C5.146 15.9684 5.04183 15.8492 4.896 15.8492H3.8335C3.36841 15.8464 2.92331 15.6522 2.59542 15.3092C2.26753 14.9662 2.08349 14.5021 2.0835 14.0184V11.9709C2.0835 11.4882 2.26787 11.0253 2.59606 10.684C2.92425 10.3427 3.36937 10.1509 3.8335 10.1509H4.96891C5.03581 10.145 5.09972 10.1195 5.15321 10.0773C5.20669 10.0351 5.24754 9.978 5.271 9.91258C5.31183 9.8463 5.33354 9.76922 5.33354 9.6905C5.33354 9.61177 5.31183 9.5347 5.271 9.46841L4.43766 8.66675C4.27483 8.49859 4.1456 8.29859 4.05742 8.07826C3.96923 7.85794 3.92383 7.62165 3.92383 7.383C3.92383 7.14435 3.96923 6.90806 4.05742 6.68773C4.1456 6.46741 4.27483 6.26741 4.43766 6.09925L5.8335 4.61508C5.99329 4.4441 6.18435 4.30809 6.39545 4.21507C6.60654 4.12204 6.8334 4.07388 7.06266 4.07341C7.29834 4.07234 7.5319 4.11963 7.74997 4.21258C7.96804 4.30553 8.16633 4.44231 8.3335 4.61508L9.10433 5.41675C9.16171 5.45545 9.22864 5.47605 9.29704 5.47605C9.36543 5.47605 9.43236 5.45545 9.48975 5.41675C9.646 5.35175 9.76058 5.24341 9.76058 5.09175V3.98675C9.76333 3.50306 9.95002 3.04016 10.2799 2.69915C10.6097 2.35814 11.0559 2.16674 11.521 2.16675H13.5418C14.006 2.16675 14.4511 2.3585 14.7793 2.69981C15.1075 3.04113 15.2918 3.50405 15.2918 3.98675V5.16758C15.2975 5.23715 15.322 5.30362 15.3626 5.35925C15.4032 5.41487 15.4581 5.45735 15.521 5.48175C15.5847 5.52422 15.6588 5.54679 15.7345 5.54679C15.8102 5.54679 15.8843 5.52422 15.9481 5.48175L16.6668 4.61508C16.8285 4.44574 17.0208 4.31134 17.2327 4.21963C17.4445 4.12791 17.6717 4.0807 17.9012 4.0807C18.1307 4.0807 18.3579 4.12791 18.5697 4.21963C18.7816 4.31134 18.9739 4.44574 19.1356 4.61508L20.5627 6.06675C20.7274 6.23494 20.8583 6.43555 20.9477 6.65688C21.0371 6.87821 21.0833 7.11584 21.0835 7.35592C21.0885 7.59998 21.0448 7.84248 20.9552 8.06811C20.8655 8.29373 20.7319 8.49756 20.5627 8.66675L19.7918 9.46841C19.7546 9.52809 19.7348 9.5977 19.7348 9.66883C19.7348 9.73996 19.7546 9.80957 19.7918 9.86925C19.8543 10.0317 19.9585 10.1509 20.1043 10.1509H21.2397C21.692 10.1732 22.1187 10.3759 22.431 10.7169C22.7433 11.0578 22.9173 11.5108 22.9168 11.9817V14.0834C22.9168 14.5661 22.7325 15.029 22.4043 15.3703C22.0761 15.7117 21.631 15.9034 21.1668 15.9034H20.0314C19.9645 15.9093 19.9006 15.9348 19.8471 15.977C19.7936 16.0192 19.7528 16.0763 19.7293 16.1417C19.6921 16.2014 19.6723 16.271 19.6723 16.3422C19.6723 16.4133 19.6921 16.4829 19.7293 16.5426L20.5314 17.3767C20.6942 17.5449 20.8235 17.7449 20.9117 17.9652C20.9998 18.1856 21.0452 18.4218 21.0452 18.6605C21.0452 18.8991 20.9998 19.1354 20.9117 19.3558C20.8235 19.5761 20.6942 19.7761 20.5314 19.9442L19.1668 21.3851C19.007 21.5561 18.816 21.6921 18.6049 21.7851C18.3938 21.8781 18.1669 21.9263 17.9377 21.9267C17.4725 21.9204 17.028 21.7261 16.6981 21.3851L15.896 20.5834C15.8386 20.5447 15.7717 20.5241 15.7033 20.5241C15.6349 20.5241 15.568 20.5447 15.5106 20.5834C15.3543 20.6484 15.2397 20.7567 15.2397 20.9084V22.0892C15.2183 22.5596 15.0234 23.0034 14.6956 23.3282C14.3677 23.653 13.9321 23.8339 13.4793 23.8334ZM11.8439 21.6667H13.1564V20.8326C13.1608 20.333 13.3077 19.846 13.5785 19.4333C13.8492 19.0206 14.2316 18.7008 14.6772 18.5142C15.1247 18.3108 15.6203 18.2506 16.1008 18.3413C16.5813 18.432 17.025 18.6695 17.3752 19.0234L17.9377 19.6084L18.8543 18.6551L18.2918 18.0592C17.9536 17.7005 17.7255 17.2454 17.6365 16.7516C17.5475 16.2578 17.6016 15.7477 17.7918 15.2859C17.9728 14.8245 18.281 14.4291 18.6777 14.1495C19.0744 13.87 19.5418 13.7188 20.021 13.7151H20.8335V12.3176H20.0314C19.5511 12.313 19.0828 12.1602 18.686 11.8786C18.2892 11.5971 17.9816 11.1994 17.8022 10.7359C17.6067 10.2705 17.5488 9.75514 17.636 9.25542C17.7232 8.75569 17.9515 8.2943 18.2918 7.93008L18.8543 7.34508L17.9377 6.39175L17.3647 6.97675C17.0145 7.30951 16.58 7.53125 16.1126 7.61586C15.6453 7.70048 15.1643 7.64444 14.7265 7.45435C14.2887 7.26425 13.9123 6.94802 13.6415 6.54289C13.3707 6.13776 13.2169 5.66059 13.1981 5.16758V4.33341H11.8439V5.16758C11.8395 5.66716 11.6926 6.15413 11.4219 6.56683C11.1511 6.97953 10.7687 7.29939 10.3231 7.48591C9.87561 7.68933 9.38002 7.74954 8.89952 7.65886C8.41902 7.56817 7.97538 7.33071 7.62516 6.97675L7.06266 6.39175L6.146 7.34508L6.7085 7.94091C7.02846 8.30521 7.24167 8.75701 7.32303 9.2431C7.40439 9.72919 7.3505 10.2293 7.16772 10.6846C6.98494 11.14 6.68088 11.5315 6.29133 11.8131C5.90178 12.0947 5.44296 12.2547 4.96891 12.2742H4.16683V13.6392H4.96891C5.44927 13.6439 5.91752 13.7966 6.31434 14.0782C6.71117 14.3597 7.01873 14.7574 7.19808 15.2209C7.39367 15.6863 7.45157 16.2017 7.36437 16.7014C7.27717 17.2011 7.04884 17.6625 6.7085 18.0267L6.146 18.6117L7.06266 19.5651L7.63558 18.9801C7.98587 18.6473 8.42028 18.4256 8.88768 18.341C9.35507 18.2564 9.83598 18.3124 10.2738 18.5025C10.7116 18.6926 11.088 19.0088 11.3588 19.4139C11.6296 19.8191 11.7835 20.2962 11.8022 20.7892L11.8439 21.6667Z" fill="#97A0A8"/>
<path d="M12.4998 16.7916C11.7788 16.7916 11.0739 16.5692 10.4743 16.1526C9.87477 15.7359 9.40747 15.1438 9.13153 14.4509C8.85558 13.7581 8.78338 12.9957 8.92406 12.2602C9.06473 11.5247 9.41197 10.8491 9.92185 10.3188C10.4317 9.78853 11.0814 9.42741 11.7886 9.28111C12.4958 9.13481 13.2289 9.20989 13.895 9.49688C14.5612 9.78386 15.1306 10.2698 15.5312 10.8934C15.9318 11.5169 16.1457 12.25 16.1457 12.9999C16.1457 14.0055 15.7616 14.97 15.0778 15.681C14.3941 16.3921 13.4668 16.7916 12.4998 16.7916ZM12.4998 11.3749C12.1908 11.3749 11.8887 11.4702 11.6318 11.6488C11.3748 11.8273 11.1745 12.0811 11.0563 12.3781C10.938 12.675 10.9071 13.0017 10.9674 13.3169C11.0277 13.6322 11.1765 13.9217 11.395 14.149C11.6135 14.3762 11.8919 14.531 12.195 14.5937C12.4981 14.6564 12.8123 14.6242 13.0978 14.5012C13.3833 14.3782 13.6273 14.17 13.799 13.9027C13.9707 13.6355 14.0623 13.3213 14.0623 12.9999C14.0623 12.5689 13.8977 12.1556 13.6047 11.8509C13.3117 11.5461 12.9142 11.3749 12.4998 11.3749Z" fill="#97A0A8"/>
</svg>
