<svg width="20" height="28" viewBox="0 0 20 28" fill="none" xmlns="http://www.w3.org/2000/svg">
<path d="M18 28H2C1.46973 27.9995 0.961329 27.7886 0.586371 27.4136C0.211413 27.0387 0.000529477 26.5303 0 26V2C0.000529477 1.46973 0.211413 0.961329 0.586371 0.586371C0.961329 0.211413 1.46973 0.000529477 2 0H18C18.5303 0.000529477 19.0387 0.211413 19.4136 0.586371C19.7886 0.961329 19.9995 1.46973 20 2V18.618L15 16.118L10 18.618V2H2V26H18V22H20V26C19.9992 26.5302 19.7882 27.0384 19.4133 27.4133C19.0384 27.7882 18.5302 27.9992 18 28ZM15 13.882L18 15.382V2H12V15.382L15 13.882Z" fill="#2337CC"/>
</svg>
