<svg width="20" height="24" viewBox="0 0 20 24" fill="none" xmlns="http://www.w3.org/2000/svg">
<path d="M19.1604 11.7141C19.1604 14.2753 18.036 16.6919 16.0761 18.3445L14.3736 16.3245C15.7366 15.1753 16.5184 13.4948 16.5184 11.7141C16.5184 8.51112 14.0054 5.89186 10.8483 5.7057H9.55599L10.6443 8.46089C10.6809 8.55304 10.6511 8.65841 10.5717 8.71809C10.4926 8.77799 10.3832 8.77777 10.3043 8.71703L4.89281 4.55627C4.83852 4.51421 4.80649 4.45011 4.80649 4.38107C4.80649 4.31242 4.83847 4.24761 4.89281 4.20599L10.3049 0.0454576C10.3443 0.0148875 10.3915 0 10.4391 0C10.486 0 10.5328 0.0146224 10.5723 0.0443973C10.6516 0.103947 10.6812 0.209706 10.6448 0.301858L9.55652 3.05661L10.4924 3.05935V3.04539C10.8269 3.04539 11.1569 3.06655 11.4818 3.10375C11.6972 3.12619 11.9377 3.15804 12.1202 3.20102C16.1236 3.96532 19.1604 7.49064 19.1604 11.7141ZM9.69501 15.2831C9.61642 15.2223 9.50673 15.2221 9.42761 15.2821C9.34849 15.3419 9.31889 15.4472 9.35516 15.5396L10.4435 18.2947H9.15124C5.99475 18.1082 3.48137 15.4887 3.48137 12.286C3.48137 10.6194 4.14658 9.06858 5.35436 7.91942L3.53293 6.00543C1.79595 7.65843 0.839355 9.88863 0.839355 12.286C0.839355 16.5091 3.87573 20.0347 7.87998 20.799C8.06287 20.8418 8.30323 20.8736 8.51855 20.8961C8.84338 20.9334 9.17315 20.9546 9.50792 20.9546V20.9405L10.4438 20.9433L9.35542 23.6981C9.31889 23.7908 9.3488 23.8963 9.42787 23.9556C9.46746 23.9853 9.51406 24 9.56107 24C9.60873 24 9.65574 23.9851 9.69554 23.9545L15.1068 19.7937C15.1611 19.7521 15.1932 19.6874 15.1932 19.6187C15.1932 19.5497 15.1611 19.4855 15.1068 19.4437L9.69501 15.2831Z" fill="#97A0A8"/>
</svg>
