<svg width="24" height="24" viewBox="0 0 24 24" fill="none" xmlns="http://www.w3.org/2000/svg">
<path d="M7.8 4.49961C7.8 4.26091 7.70518 4.032 7.5364 3.86321C7.36761 3.69443 7.13869 3.59961 6.9 3.59961C6.66131 3.59961 6.43239 3.69443 6.2636 3.86321C6.09482 4.032 6 4.26091 6 4.49961V10.7996C6 12.44 6.4068 14.0828 7.392 15.3356C8.4036 16.6196 9.9504 17.3996 12 17.3996C14.0496 17.3996 15.5964 16.6196 16.608 15.3356C17.592 14.0828 18 12.44 18 10.7996V4.49961C18 4.26091 17.9052 4.032 17.7364 3.86321C17.5676 3.69443 17.3387 3.59961 17.1 3.59961C16.8613 3.59961 16.6324 3.69443 16.4636 3.86321C16.2948 4.032 16.2 4.26091 16.2 4.49961V10.7996C16.2 12.1712 15.8568 13.3796 15.192 14.2232C14.5548 15.0344 13.5516 15.5996 12 15.5996C10.4484 15.5996 9.4464 15.0356 8.808 14.2232C8.1432 13.3784 7.8 12.1712 7.8 10.7996V4.49961ZM6.9 18.5996C6.66131 18.5996 6.43239 18.6944 6.2636 18.8632C6.09482 19.032 6 19.2609 6 19.4996C6 19.7383 6.09482 19.9672 6.2636 20.136C6.43239 20.3048 6.66131 20.3996 6.9 20.3996H17.1C17.3387 20.3996 17.5676 20.3048 17.7364 20.136C17.9052 19.9672 18 19.7383 18 19.4996C18 19.2609 17.9052 19.032 17.7364 18.8632C17.5676 18.6944 17.3387 18.5996 17.1 18.5996H6.9Z" fill="black"/>
</svg>
