<svg width="18" height="24" viewBox="0 0 18 24" fill="none" xmlns="http://www.w3.org/2000/svg">
<path d="M4.5 6C4.30109 6 4.11032 6.07902 3.96967 6.21967C3.82902 6.36032 3.75 6.55109 3.75 6.75C3.75 6.94891 3.82902 7.13968 3.96967 7.28033C4.11032 7.42098 4.30109 7.5 4.5 7.5H13.5C13.6989 7.5 13.8897 7.42098 14.0303 7.28033C14.171 7.13968 14.25 6.94891 14.25 6.75C14.25 6.55109 14.171 6.36032 14.0303 6.21967C13.8897 6.07902 13.6989 6 13.5 6H4.5ZM3.75 9.75C3.75 9.55109 3.82902 9.36032 3.96967 9.21967C4.11032 9.07902 4.30109 9 4.5 9H13.5C13.6989 9 13.8897 9.07902 14.0303 9.21967C14.171 9.36032 14.25 9.55109 14.25 9.75C14.25 9.94891 14.171 10.1397 14.0303 10.2803C13.8897 10.421 13.6989 10.5 13.5 10.5H4.5C4.30109 10.5 4.11032 10.421 3.96967 10.2803C3.82902 10.1397 3.75 9.94891 3.75 9.75ZM4.5 12C4.30109 12 4.11032 12.079 3.96967 12.2197C3.82902 12.3603 3.75 12.5511 3.75 12.75C3.75 12.9489 3.82902 13.1397 3.96967 13.2803C4.11032 13.421 4.30109 13.5 4.5 13.5H13.5C13.6989 13.5 13.8897 13.421 14.0303 13.2803C14.171 13.1397 14.25 12.9489 14.25 12.75C14.25 12.5511 14.171 12.3603 14.0303 12.2197C13.8897 12.079 13.6989 12 13.5 12H4.5ZM4.5 15C4.30109 15 4.11032 15.079 3.96967 15.2197C3.82902 15.3603 3.75 15.5511 3.75 15.75C3.75 15.9489 3.82902 16.1397 3.96967 16.2803C4.11032 16.421 4.30109 16.5 4.5 16.5H9C9.19891 16.5 9.38968 16.421 9.53033 16.2803C9.67098 16.1397 9.75 15.9489 9.75 15.75C9.75 15.5511 9.67098 15.3603 9.53033 15.2197C9.38968 15.079 9.19891 15 9 15H4.5Z" fill="black"/>
<path d="M0 3C0 2.20435 0.31607 1.44129 0.87868 0.87868C1.44129 0.316071 2.20435 0 3 0L15 0C15.7956 0 16.5587 0.316071 17.1213 0.87868C17.6839 1.44129 18 2.20435 18 3V21C18 21.7956 17.6839 22.5587 17.1213 23.1213C16.5587 23.6839 15.7956 24 15 24H3C2.20435 24 1.44129 23.6839 0.87868 23.1213C0.31607 22.5587 0 21.7956 0 21V3ZM15 1.5H3C2.60218 1.5 2.22064 1.65804 1.93934 1.93934C1.65804 2.22064 1.5 2.60218 1.5 3V21C1.5 21.3978 1.65804 21.7794 1.93934 22.0607C2.22064 22.342 2.60218 22.5 3 22.5H15C15.3978 22.5 15.7794 22.342 16.0607 22.0607C16.342 21.7794 16.5 21.3978 16.5 21V3C16.5 2.60218 16.342 2.22064 16.0607 1.93934C15.7794 1.65804 15.3978 1.5 15 1.5Z" fill="black"/>
</svg>
