<svg width="20" height="22" viewBox="0 0 20 22" fill="none" xmlns="http://www.w3.org/2000/svg">
<path d="M15 17.9992H18V3.99924H15V1.99924H19C19.2652 1.99924 19.5196 2.1046 19.7071 2.29213C19.8947 2.47967 20 2.73402 20 2.99924V18.9992C20 19.2645 19.8947 19.5188 19.7071 19.7063C19.5196 19.8939 19.2652 19.9992 19 19.9992H15V17.9992ZM0.859023 1.87624L13.429 0.0812386C13.5 0.071062 13.5723 0.0762543 13.641 0.0964637C13.7098 0.116673 13.7734 0.151427 13.8275 0.198371C13.8817 0.245315 13.9251 0.303351 13.9549 0.368546C13.9846 0.433741 14 0.504572 14 0.576239V21.4222C14 21.4938 13.9846 21.5645 13.9549 21.6297C13.9252 21.6948 13.8819 21.7528 13.8279 21.7997C13.7738 21.8466 13.7103 21.8814 13.6417 21.9017C13.5731 21.9219 13.5009 21.9273 13.43 21.9172L0.858024 20.1222C0.619642 20.0883 0.401516 19.9695 0.243712 19.7876C0.0859086 19.6057 -0.000974252 19.373 -0.000976562 19.1322V2.86624C-0.000974252 2.62545 0.0859086 2.39275 0.243712 2.21088C0.401516 2.02901 0.619642 1.91019 0.858024 1.87624H0.859023ZM2.00002 3.73424V18.2642L12 19.6932V2.30524L2.00002 3.73424ZM9.00002 6.99924H11V14.9992H9.00002L7.00002 12.9992L5.00002 14.9992H3.00002V6.99924H5.00002L5.01002 11.9992L7.00002 9.99924L9.00002 11.9882V6.99924Z" fill="#283C82"/>
</svg>
